# xmcd
#
# Track frame offsets: 
#        150
#        16330
#        32235
#        48055
#        65927
#        84875
#        104425
#        130387
#        147730
#        163627
#        181285
#        202385
#
# Disc length: 2929 seconds
#
# Revision: 1
# Processed by: cddbd v1.5.2PL0 Copyright (c) Steve Scherf et al.
# Submitted via: ExactAudioCopyFreeDBPlugin 1.0
#
DISCID=b10b6f0c
DTITLE=Gladys Knight - Gladys Knight and The Pips:  Collector's Edition
DYEAR=1997
DGENRE=Soul
TTITLE0=I've Got to Use My Imagination
TTITLE1=The Going Ups and the Coming Downs
TTITLE2=I Love to Feel That Feeling
TTITLE3=A Little Bit of Love
TTITLE4=The Need to Be
TTITLE5=I'm Coming Home Again
TTITLE6=It's A Better Than Good Time
TTITLE7=It's Up to You (Do What You Do)
TTITLE8=Nobody But You
TTITLE9=Love Finds Its Own Way
TTITLE10=The Way We Were - Try to Remember
TTITLE11=So Sad the Song
EXTD=ID3G: 42
EXTT0=
EXTT1=
EXTT2=
EXTT3=
EXTT4=
EXTT5=
EXTT6=
EXTT7=
EXTT8=
EXTT9=
EXTT10=
EXTT11=
PLAYORDER=
